<svg width="70" height="299" viewBox="0 0 70 299" fill="none" xmlns="http://www.w3.org/2000/svg">
<g clip-path="url(#clip0_10_855)">
<path d="M-85.2351 44.9878C-84.3174 49.0796 -83.3538 53.1014 -82.5182 57.1476C-79.769 70.4699 -78.1376 83.9987 -77.6409 97.5927C-76.9326 115.94 -78.2388 134.31 -81.536 152.373C-85.3942 173.544 -91.9583 193.852 -100.78 213.479C-112.169 238.907 -122.082 264.895 -129.566 291.779C-133.518 306.034 -136.825 320.448 -138.649 335.13C-139.639 343.09 -139.922 351.135 -140.512 359.138C-140.557 359.731 -140.472 360.344 -140.44 361.297C-139.362 360.802 -138.481 360.426 -137.614 359.995C-119.361 351.302 -102.825 339.912 -87.0598 327.389C-63.1493 308.385 -41.5625 286.944 -21.2795 264.197C4.22729 235.612 34.4026 213.497 69.6556 198.406C85.7241 191.536 102.472 186.378 119.621 183.018C121.709 182.606 123.806 182.238 126.251 181.786L126.533 190.231C123.686 190.829 120.572 191.489 117.462 192.144C95.4412 196.815 74.1863 204.559 54.3209 215.146C27.5057 229.383 4.32902 248.181 -15.8443 270.839C-35.7187 293.166 -56.9473 314.12 -80.2874 332.843C-97.417 346.587 -115.412 359.02 -135.402 368.339C-137.947 369.527 -140.535 370.632 -143.163 371.618C-146.002 372.683 -148.823 370.901 -148.815 367.885C-148.743 360.053 -148.905 352.188 -148.154 344.405C-144.011 301.505 -130.202 261.277 -113.693 221.845C-108.656 209.808 -103.456 197.827 -98.99 185.576C-93.1558 169.568 -89.6976 152.935 -87.6867 136C-86.0857 122.493 -85.61 108.877 -86.2644 95.2921C-87.0124 80.0381 -89.21 64.8899 -92.8277 50.0522C-93.2339 48.375 -93.0956 47.4524 -91.3215 46.9342C-89.5909 46.4376 -87.9416 45.6741 -86.2518 45.0419C-85.9159 44.9872 -85.5749 44.9691 -85.2351 44.9878Z" fill="#F7F7F7"/>
<path d="M-113.539 319.863C-112.56 319.178 -111.859 318.72 -111.179 318.222C-91.2155 303.498 -72.9679 286.825 -55.8113 268.945C-45.5525 258.253 -35.7511 247.12 -25.3547 236.568C-7.80959 218.751 12.0224 203.834 33.8144 191.552C36.7912 189.877 39.791 188.247 42.8137 186.662C45.4209 185.291 47.8682 185.881 49.0731 188.087C50.3292 190.38 49.4343 192.753 46.6808 194.206C31.3937 202.162 16.8946 211.548 3.37775 222.238C-9.56401 232.518 -21.3827 243.999 -32.4086 256.316C-50.4936 276.53 -69.5823 295.742 -90.6281 312.89C-99.0345 319.741 -107.97 325.949 -116.666 332.435C-118.406 333.733 -120.251 334.306 -122.227 332.987C-124.204 331.669 -124.247 329.661 -123.881 327.592C-120.789 310.109 -116.244 293.001 -110.704 276.137C-104.021 255.785 -95.9882 235.927 -87.2454 216.364C-77.4301 194.483 -70.5961 171.385 -66.9263 147.686C-64.4683 131.928 -63.4849 115.976 -63.9887 100.035C-64.0511 98.1654 -63.6822 96.5549 -62.064 95.4662C-59.2491 93.5646 -55.7178 95.5119 -55.5552 99.178C-55.3723 103.326 -55.1765 107.503 -55.4082 111.653C-55.9602 121.406 -56.4874 131.174 -57.5239 140.882C-59.4446 158.829 -63.6721 176.297 -69.2464 193.456C-73.7618 207.363 -79.9343 220.592 -85.6619 234.004C-95.1015 256.091 -103.338 278.637 -109.501 301.906C-110.93 307.332 -112.124 312.827 -113.415 318.293C-113.487 318.813 -113.529 319.338 -113.539 319.863Z" fill="#F7F7F7"/>
<path d="M-165.254 412.573C-147.545 413.024 -132.111 406.635 -117.052 399.24C-91.6316 386.74 -69.012 370.067 -47.5089 351.788C-25.7592 333.296 -5.85869 312.958 13.2612 291.788C40.5791 261.541 73.8885 240.932 113.189 229.96C117.621 228.725 122.117 227.729 126.94 226.538C126.775 229.426 126.696 232.017 126.403 234.583C126.35 235.04 125.44 235.622 124.832 235.759C106.462 239.877 88.7645 246.567 72.2632 255.63C52.6289 266.345 34.9611 280.323 20.0163 296.965C-1.14872 320.546 -23.3939 343.004 -47.8727 363.194C-68.0098 379.824 -89.2345 394.869 -112.689 406.562C-124.101 412.249 -135.875 416.998 -148.437 419.463C-152.297 420.22 -156.266 420.477 -160.197 420.786C-160.617 420.756 -161.025 420.628 -161.386 420.412C-161.748 420.197 -162.054 419.899 -162.279 419.543C-163.383 417.353 -164.23 415.035 -165.254 412.573Z" fill="#F7F7F7"/>
<path d="M121.121 137.79L122.552 146.157C120.208 146.613 117.893 147.081 115.573 147.517C81.8138 153.812 49.4653 166.138 20.0765 183.903C-4.73836 198.85 -26.6435 217.267 -46.179 238.652C-56.1763 249.582 -66.5721 260.15 -76.7856 270.878C-78.0963 272.254 -79.6353 272.821 -81.5065 272.243C-82.2626 272.047 -82.9379 271.618 -83.437 271.017C-83.936 270.416 -84.2335 269.673 -84.2874 268.894C-84.3229 267.697 -84.0874 266.507 -83.5985 265.413C-77.9707 251.666 -72.1102 238.012 -66.6701 224.187C-62.1169 212.618 -58.0123 200.875 -53.7489 189.186C-52.7904 186.546 -51.4672 185.181 -49.3609 185.203C-46.3285 185.235 -44.3877 188.016 -45.4852 191.197C-49.0099 201.379 -52.4542 211.559 -56.3495 221.612C-59.7376 230.341 -63.6967 238.846 -67.3987 247.456C-67.7403 248.149 -67.8805 248.924 -67.8031 249.692C-67.3243 249.201 -66.8292 248.718 -66.363 248.211C-59.171 240.434 -52.1163 232.526 -44.7745 224.893C-20.4304 199.559 8.24132 178.775 39.891 163.519C60.6224 153.503 82.4494 145.935 104.931 140.968C110.206 139.794 115.534 138.875 121.121 137.79Z" fill="#F7F7F7"/>
<path d="M-17.9609 172.395C22.9301 143.139 67.6982 124.619 116.907 116.47C117.267 118.092 117.564 119.383 117.853 120.677C118.141 121.972 118.39 123.268 118.664 124.612C113.198 125.704 107.864 126.687 102.604 127.829C64.0079 136.076 27.3814 151.743 -5.23954 173.959C-10.7231 177.681 -16.0073 181.71 -21.3556 185.625C-23.4935 187.186 -25.4316 187.496 -27.0941 186.416C-28.7566 185.336 -29.2925 183.514 -28.644 180.872C-25.2021 166.884 -22.583 152.731 -21.3792 138.391C-20.454 127.398 -19.8978 116.329 -20.0045 105.297C-20.1125 93.9886 -20.8653 82.657 -21.9982 71.3985C-23.4132 57.3556 -26.2592 43.5013 -29.8 29.8152C-29.911 29.3841 -29.9661 28.9391 -30.069 28.391C-27.6714 27.856 -25.4085 27.2651 -23.1134 26.9147C-22.6449 26.8387 -21.6665 27.5669 -21.5491 28.0702C-19.8665 35.2966 -18.0117 42.4972 -16.7653 49.8026C-15.1295 59.3656 -13.645 68.9778 -12.751 78.63C-11.857 88.2821 -11.5715 97.9143 -11.4271 107.543C-11.2495 115.045 -11.488 122.551 -12.1416 130.027C-13.2234 141.271 -14.8868 152.458 -16.3686 163.658C-16.7414 166.36 -17.3446 169.029 -17.9609 172.395Z" fill="#F7F7F7"/>
<path d="M125.343 249.739C125.088 252.473 124.933 255.067 124.527 257.613C124.444 258.119 123.427 258.664 122.749 258.848C106.122 263.354 90.2204 270.202 75.5214 279.185C61.0221 288.037 47.8807 298.942 36.5058 311.559C16.0461 334.32 -5.3515 356.121 -28.6782 375.97C-42.8253 388.093 -57.741 399.288 -73.3319 409.487C-76.0154 411.227 -78.6108 410.903 -80.0048 408.699C-81.3989 406.495 -80.6813 404.233 -78.226 402.533C-71.6197 397.952 -64.9165 393.501 -58.4535 388.728C-36.3457 372.402 -15.9335 354.124 3.24936 334.477C13.6935 323.786 23.6382 312.609 34.0114 301.844C59.0885 275.821 89.2647 258.553 124.314 249.782C124.656 249.743 125 249.729 125.343 249.739Z" fill="#F7F7F7"/>
<path d="M126.944 204.476C127.034 207.191 127.191 209.589 127.122 211.986C127.111 212.389 126.224 213.063 125.652 213.175C109.887 216.245 94.5036 221.025 79.7755 227.432C57.4346 237.153 36.8403 250.474 18.8136 266.864C17.6796 267.854 16.2708 268.475 14.7749 268.645C13.2057 268.79 11.8331 267.713 11.2759 266.097C10.665 264.318 10.9305 262.626 12.4045 261.317C15.4112 258.648 18.3843 255.936 21.4868 253.365C48.4742 231.143 78.9381 215.818 112.878 207.39C116.839 206.416 120.833 205.582 124.814 204.712C125.519 204.593 126.23 204.514 126.944 204.476Z" fill="#F7F7F7"/>
<path d="M122.429 274.349C121.969 277.09 121.442 279.511 121.206 281.959C121.072 283.368 120.384 283.87 119.194 284.268C101.361 290.222 85.0654 299.043 70.637 311.099C64.5901 316.156 58.9431 321.736 53.4437 327.394C45.9282 335.129 38.7415 343.183 31.3593 351.051C30.6131 351.886 29.6632 352.514 28.6021 352.874C26.7834 353.385 25.1569 352.779 24.0823 351.1C23.5689 350.307 23.3407 349.362 23.4352 348.422C23.5296 347.482 23.941 346.602 24.6019 345.926C26.8658 343.435 29.2267 341.078 31.5203 338.634C39.3997 330.226 46.9624 321.496 55.2002 313.451C74.0149 295.073 96.1987 282.23 121.391 274.606C121.634 274.541 121.87 274.489 122.429 274.349Z" fill="#F7F7F7"/>
<path d="M105.001 73.7513L107.562 81.7174C104.335 82.3807 101.225 83.0441 98.1053 83.6435C75.1284 88.171 52.9146 95.177 31.3106 104.167C26.8596 106.019 24.4744 104.396 24.1593 99.5391C23.4814 88.6438 22.6468 77.7578 21.9408 66.8635C21.8109 65.6134 21.9712 64.3502 22.4093 63.1723C23.1385 61.5014 24.7152 60.7362 26.5555 60.9928C28.3958 61.2493 29.7454 62.2429 30.065 64.0962C30.5256 66.7982 30.8824 69.5278 31.0985 72.2622C31.6405 79.2087 32.0781 86.1627 32.5639 93.1151C32.5747 93.4368 32.6737 93.7515 32.7826 94.3598C56.0707 84.9901 80.2754 78.083 105.001 73.7513Z" fill="#F7F7F7"/>
<path d="M111.567 95.1948L113.662 103.088C107.733 104.296 102.096 105.378 96.4688 106.597C79.9822 110.183 63.7894 114.85 48.1822 121.261C37.2453 125.757 26.5758 130.904 15.792 135.765C15.1812 136.039 14.6063 136.424 14.0028 136.674C11.6711 137.617 9.36218 136.829 8.33809 134.733C7.314 132.638 8.01195 130.272 10.28 129.113C15.2196 126.581 20.1771 124.101 25.2191 121.742C46.9169 111.581 69.524 104.059 92.8547 98.674C98.5155 97.3658 104.255 96.377 109.963 95.2605C110.495 95.2005 111.031 95.1785 111.567 95.1948Z" fill="#F7F7F7"/>
<path d="M52.3961 63.8496C56.7018 62.5906 60.642 61.3519 64.6326 60.3008C71.6122 58.4574 78.6042 56.7464 85.6227 54.9862C86.0815 54.8881 86.5455 54.8161 87.0125 54.7707C89.6741 54.4282 91.6141 55.7403 92.066 58.1809C92.4844 60.4656 90.9581 62.4973 88.3936 63.0982C85.1422 63.863 81.8631 64.5241 78.6448 65.4367C69.7575 67.8954 60.8978 70.4578 52.024 72.9603C51.081 73.2899 50.1115 73.5377 49.126 73.7011C46.6425 73.9532 44.8414 72.4594 44.5179 70.0064C43.8128 64.563 43.2759 59.0938 42.3625 53.6855C40.8856 44.7815 39.2045 35.9124 37.5597 27.0422C37.0674 24.3573 36.4071 21.7023 35.7947 18.9168C38.5993 18.5131 41.2155 18.1359 44.1804 17.7108C47.9326 32.7827 50.441 48.1016 52.3961 63.8496Z" fill="#F7F7F7"/>
<path d="M-0.28951 22.8674C1.11833 28.8591 2.72882 34.6507 3.75932 40.5543C5.69481 51.6169 7.7756 62.6908 8.87279 73.8458C10.035 85.6227 10.126 97.5078 10.6623 109.346C10.7575 110.954 10.7616 112.567 10.6746 114.176C10.4791 117.001 8.76748 118.668 6.24921 118.603C3.83173 118.543 2.18729 116.678 2.1335 113.862C1.98635 105.96 2.04027 98.0515 1.67611 90.1611C0.96075 74.8508 -0.980233 59.6224 -4.12819 44.6221C-5.42667 38.4094 -6.87687 32.234 -8.37132 26.06C-8.74928 24.5066 -8.21863 24.0018 -6.80744 23.8259C-4.7389 23.5636 -2.69717 23.2216 -0.28951 22.8674Z" fill="#F7F7F7"/>
<path d="M124.322 159.966L125.269 168.083C122.806 168.568 120.356 169.104 117.895 169.561C101.138 172.736 84.7363 177.559 68.9275 183.958C67.7715 184.423 66.5113 184.9 65.299 184.884C63.411 184.887 61.844 183.293 61.5401 181.544C61.1655 179.37 62.0445 177.602 64.2502 176.747C69.8538 174.567 75.4654 172.387 81.1487 170.426C94.6368 165.777 108.48 162.492 122.52 160.018C123.119 159.965 123.721 159.947 124.322 159.966Z" fill="#F7F7F7"/>
<path d="M70.6831 35.7106C78.786 33.9947 86.7251 32.3125 95.0118 30.5542L95.7281 38.9844C91.7832 39.8408 88.0132 40.627 84.2533 41.4772C79.2429 42.6107 74.2289 43.7604 69.2331 44.97C65.3995 45.9032 63.5635 44.6923 62.812 40.8728C61.1967 32.6873 59.5186 24.5106 57.7778 16.3428C57.4629 14.8718 57.6487 14.1651 59.2168 13.7464C61.2122 13.2208 63.1045 12.3847 65.4631 11.5249L70.6831 35.7106Z" fill="#F7F7F7"/>
<path d="M13.6904 21.0076C16.5619 20.6782 19.1968 20.3769 22.1123 20.042C23.0566 24.2094 24.0362 28.3473 24.9436 32.4917C25.2435 33.7229 25.4429 34.9765 25.5398 36.2399C25.6418 37.2497 25.3449 38.2593 24.7124 39.053C24.0799 39.8467 23.1621 40.3615 22.155 40.4875C19.9448 40.8471 17.8487 39.6812 17.3422 37.5323C16.0876 32.1514 14.9647 26.738 13.6904 21.0076Z" fill="#F7F7F7"/>
</g>
<defs>
<clipPath id="clip0_10_855">
<rect width="470.295" height="425.4" fill="white" transform="translate(120.163) rotate(88.0872)"/>
</clipPath>
</defs>
</svg>

