<svg width="444" height="712" viewBox="0 0 444 712" fill="none" xmlns="http://www.w3.org/2000/svg">
<g clip-path="url(#clip0_10_704)">
<path d="M227.654 421.523C236.067 422.954 244.385 424.245 252.649 425.795C279.86 430.904 306.595 438.277 332.578 447.837C367.675 460.669 401.259 477.312 432.728 497.467C469.617 521.078 502.791 549.118 532.94 580.883C572.032 621.963 613.315 660.694 658.164 695.544C681.955 713.992 706.545 731.348 732.785 746.12C747.01 754.13 761.941 760.874 776.556 768.164C777.639 768.706 778.859 769.02 780.678 769.696C780.579 767.283 780.552 765.333 780.408 763.367C778.13 722.284 769.449 682.351 758.038 642.994C740.714 583.296 717.003 526.091 689.829 470.333C655.692 400.231 637.345 326.333 636.146 248.297C635.615 212.734 638.832 177.214 645.745 142.325C646.581 138.076 647.507 133.842 648.543 128.89L664.663 134.878C663.592 140.7 662.43 147.074 661.263 153.437C653.058 198.511 651.229 244.515 655.83 290.098C661.936 351.586 679.44 409.744 706.533 465.227C733.232 519.89 756.302 576.044 773.538 634.452C786.195 677.321 795.714 720.806 797.828 765.646C798.101 771.355 798.184 777.082 798.01 782.792C797.824 788.96 792.29 792.897 786.618 790.553C771.924 784.369 756.989 778.602 742.912 771.18C665.325 730.256 600.233 673.192 538.724 611.659C519.947 592.881 501.4 573.839 481.778 555.97C456.138 532.624 427.485 513.27 397.147 496.408C372.949 482.965 347.675 471.557 321.588 462.3C292.285 451.931 262.063 444.374 231.328 439.731C227.856 439.201 226.226 438.228 226.62 434.487C227.021 430.845 226.856 427.15 226.97 423.479C227.127 422.804 227.356 422.149 227.654 421.523Z" fill="#DEE8DB"/>
<path d="M774.732 834.21C734.991 819.848 702.111 801.762 670.601 781.049C616.917 745.738 568.519 704.005 522.815 659.045C502.811 639.383 483.572 618.887 463.313 599.515C438.213 575.67 410.202 555.093 379.943 538.273C367.955 531.556 355.552 525.577 343.293 519.354C338.56 516.949 336.69 512.533 338.675 507.846C340.554 503.424 345.208 501.336 349.849 503.636C363.74 510.545 377.771 517.242 391.254 524.898C434.245 549.3 471.344 581 505.324 616.748C551.447 665.332 600.823 710.311 655.257 749.552C678.74 766.585 703.392 781.946 729.029 795.523C748.553 805.906 769.029 814.39 790.175 820.86C798.872 823.48 807.947 824.754 816.852 826.814C819.917 827.524 821.132 826.744 821.884 823.546C826.876 802.347 826.948 780.875 825.585 759.36C822.3 707.559 810.113 657.571 794.39 608.33C780.128 563.668 762.483 520.353 743.094 477.709C741.975 475.143 741.536 472.332 741.819 469.548C742.212 466.138 744.944 464.218 748.274 463.577C749.884 463.201 751.57 463.33 753.104 463.945C754.639 464.56 755.946 465.633 756.851 467.016C757.463 467.916 757.985 468.873 758.409 469.875C784.361 526.384 807.088 584.097 823.134 644.273C833.409 682.902 840.903 721.913 842.644 761.88C843.666 785.208 842.817 808.444 837.289 831.27C836.545 834.185 835.57 837.036 834.375 839.797C832.739 843.705 829.363 845.316 825.425 844.841C816.117 843.724 806.745 842.732 797.601 840.75C788.458 838.768 779.517 835.604 774.732 834.21Z" fill="#DEE8DB"/>
<path d="M723.423 687.047C722.89 684.674 722.568 682.999 722.156 681.335C709.841 632.373 692.533 585.139 672.11 539.026C659.894 511.452 646.498 484.4 634.653 456.675C614.649 409.88 601.869 361.016 595.566 310.497C594.711 303.598 593.957 296.691 593.306 289.775C592.737 283.806 595.738 279.654 600.823 279.088C606.111 278.493 609.888 282.01 610.498 288.317C613.677 323.247 620.158 357.797 629.853 391.505C639.218 423.812 651.715 454.933 666.396 485.205C690.497 534.868 711.938 585.648 727.982 638.519C734.392 659.639 739.184 681.258 744.684 702.642C745.785 706.921 745.439 710.837 741.43 713.541C737.42 716.244 733.607 714.775 729.992 712.489C699.458 693.169 670.75 671.401 643.271 647.948C610.106 619.649 578.913 589.192 548.823 557.623C515.198 522.247 476.976 491.543 435.182 466.335C407.406 449.541 378.125 435.372 347.719 424.014C344.149 422.688 341.401 420.749 340.6 416.862C339.193 410.093 345.586 404.946 352.615 407.47C360.569 410.329 368.584 413.185 376.221 416.826C394.16 425.395 412.147 433.929 429.63 443.377C461.942 460.85 491.573 482.297 519.581 506.042C542.283 525.283 562.43 547.12 583.264 568.261C617.568 603.09 653.665 636.007 692.726 665.579C701.84 672.46 711.266 678.949 720.562 685.6C721.487 686.138 722.442 686.622 723.423 687.047Z" fill="#DEE8DB"/>
<path d="M233.216 559.133C243.112 561.63 252.393 563.69 261.507 566.316C282.766 572.408 303.44 580.381 323.284 590.14C355.574 606.076 385.5 625.694 411.66 650.465C432.618 670.306 452.349 691.43 473.025 711.586C523.51 760.821 577.162 806.236 636.452 844.678C662.978 861.879 690.416 877.472 719.425 890.223C748.263 902.894 777.76 913.109 809.267 916.455C809.821 916.616 810.362 916.817 810.887 917.057C806.217 922.171 801.846 927.072 797.309 931.807C796.739 932.399 795.227 932.379 794.229 932.218C770.443 928.361 747.317 921.97 725.272 912.295C706.329 903.982 687.316 895.574 669.27 885.506C648.855 874.147 629.027 861.583 609.672 848.408C549.6 807.484 495.642 759.273 444.507 707.788C428.679 691.844 413.19 675.528 396.678 660.317C374.471 639.837 349.406 623.266 322.56 609.326C304.46 599.919 285.585 592.479 266.295 586.064C257.259 583.065 247.958 580.824 238.727 578.442C236.332 577.833 235.424 576.726 235.184 574.34C234.757 569.516 233.978 564.701 233.216 559.133Z" fill="#DEE8DB"/>
<path d="M561.735 104.58L578.594 108.345C577.645 113.111 576.738 117.832 575.767 122.538C561.558 190.971 559.793 261.403 570.556 330.461C579.544 388.731 597.312 444.2 622.5 497.498C635.364 524.763 647.239 552.5 659.555 580.015C661.135 583.546 661.014 586.882 658.481 589.959C657.528 591.232 656.199 592.172 654.682 592.648C653.165 593.124 651.536 593.111 650.027 592.61C647.745 591.753 645.686 590.39 644.004 588.625C622.462 567.414 601.275 545.836 579.441 524.918C561.17 507.411 542.225 490.615 523.506 473.562C519.274 469.718 517.726 466.173 519.394 462.224C521.794 456.538 528.53 455.031 533.673 459.553C550.126 474.052 566.636 488.397 582.56 503.495C596.381 516.614 609.342 530.637 622.697 544.255C623.738 545.434 625.088 546.296 626.595 546.743C626.04 545.462 625.512 544.157 624.917 542.888C615.826 523.34 606.38 503.949 597.675 484.231C568.764 418.828 551.762 348.789 547.468 277.41C544.614 230.638 547.215 183.692 555.219 137.521C557.08 126.681 559.463 115.939 561.735 104.58Z" fill="#DEE8DB"/>
<path d="M519.518 393.205C495.996 293.615 495.685 195.012 518.332 96.0549C521.665 96.6294 524.324 97.0669 526.985 97.5227C529.646 97.9784 532.279 98.511 535.021 99.0316C532.857 110.17 530.591 120.972 528.68 131.759C514.41 210.807 515.635 291.875 532.285 370.457C535.059 383.657 538.567 396.718 541.809 409.812C543.098 415.043 542.186 418.932 538.869 421.229C535.552 423.526 531.708 423.129 527.232 419.868C503.549 402.587 478.919 386.727 452.845 373.388C432.858 363.159 412.442 353.565 391.587 345.249C370.208 336.721 348.288 329.39 326.212 322.831C298.675 314.653 270.389 309.316 241.882 305.417C240.985 305.293 240.104 305.053 238.993 304.824C239.836 299.896 240.471 295.179 241.583 290.586C241.801 289.645 243.928 288.365 244.967 288.532C259.874 290.943 274.865 293.01 289.585 296.303C308.856 300.606 328.103 305.232 346.969 311.001C365.836 316.769 384.195 323.668 402.438 330.831C416.703 336.288 430.653 342.533 444.226 349.535C464.565 360.254 484.346 372.023 504.295 383.461C509.095 386.249 513.655 389.446 519.518 393.205Z" fill="#DEE8DB"/>
<path d="M241.022 609.862C246.502 611.382 251.383 612.54 256.14 614.081C304.729 629.739 348.09 654.461 385.004 689.857C403.475 707.578 420.936 726.348 439.186 744.309C484.09 788.484 531.734 829.447 583.155 865.935C610.806 885.564 639.284 904.023 669.617 919.206C690.201 929.474 711.609 938.091 732.721 947.289C739.418 950.214 741.418 957.247 736.433 961.894C733.653 964.486 730.44 964.787 726.946 963.375C714.547 958.375 701.837 954.047 689.805 948.293C671.52 939.525 653.364 930.386 635.774 920.313C601.01 900.409 568.23 877.469 536.607 852.896C482.987 811.136 433.413 764.974 386.638 715.746C362.583 690.232 334.502 668.841 303.515 652.429C285.883 643.126 267.63 635.166 248.344 629.87C245.663 629.136 244.203 627.895 243.798 625.01C243.131 620.15 242.063 615.385 241.022 609.862Z" fill="#DEE8DB"/>
<path d="M228.733 512.907C237.493 514.676 245.626 515.758 253.432 518.003C271.589 523.211 290.026 528.043 307.706 534.725C367.061 557.169 418.645 591.665 462.741 637.312C470.504 645.338 478.279 653.355 486.067 661.362C490.766 666.208 491.269 671.156 487.485 674.992C483.803 678.743 478.508 678.182 473.876 673.579C458.149 657.926 442.89 641.765 426.573 626.758C402.332 604.465 375.121 586.24 346.024 570.809C325.433 559.851 303.881 550.803 281.638 543.779C265.832 538.78 249.524 535.342 233.394 531.402C231.214 530.872 230.06 530.286 229.946 527.867C229.681 523.148 229.181 518.428 228.733 512.907Z" fill="#DEE8DB"/>
<path d="M234.752 331.806C246.372 333.729 257.647 335.428 268.851 337.486C309.742 344.99 349.332 357.147 387.751 372.975C419.093 385.969 449.261 401.634 477.919 419.796C483.929 423.584 485.169 429.417 481.136 433.806C477.972 437.243 473.557 437.534 468.918 434.596C433.339 412.038 395.413 393.414 355.809 379.052C317.213 365.124 277.253 355.318 236.594 349.796C233.393 349.358 232.333 348.545 232.992 345.243C233.81 340.995 234.128 336.658 234.752 331.806Z" fill="#DEE8DB"/>
<path d="M428.696 85.493L445.674 86.8212C444.432 93.4095 443.28 99.7781 442 106.116C432.785 152.88 428.828 200.12 429.078 247.744C429.128 257.556 424.23 260.794 414.841 257.638C393.8 250.502 372.656 243.669 351.596 236.587C349.142 235.867 346.887 234.59 345.007 232.855C342.423 230.192 342.2 226.632 344.104 223.365C346.008 220.097 348.921 218.323 352.657 219.152C358.101 220.371 363.517 221.806 368.833 223.511C382.332 227.853 395.765 232.398 409.233 236.851C409.847 237.079 410.516 237.136 411.746 237.4C412.082 186.312 417.762 135.399 428.696 85.493Z" fill="#DEE8DB"/>
<path d="M474.146 89.6852L490.627 91.8334C488.324 103.933 486.01 115.382 483.96 126.92C477.984 160.735 474.271 194.832 474.293 229.171C474.315 253.238 475.77 277.304 476.598 301.364C476.642 302.726 476.924 304.106 476.928 305.435C476.905 310.554 473.637 314.294 468.901 314.604C464.164 314.915 460.247 311.774 459.816 306.608C458.862 295.351 458.018 284.101 457.47 272.785C455.088 224.08 458.377 175.701 466.25 127.609C468.157 115.939 470.727 104.367 473.031 92.7566C473.329 91.7076 473.701 90.6812 474.146 89.6852Z" fill="#DEE8DB"/>
<path d="M252.335 663.378C256.058 664.761 258.847 665.719 261.547 666.8C286.281 676.784 309.878 688.984 330.746 705.682C343.348 715.78 355.17 726.943 366.761 738.211C384.526 755.478 401.873 773.191 419.199 790.889C421.284 793.105 422.615 795.923 423.004 798.941C423.345 802.3 421.181 805.165 417.698 806.405C413.949 807.746 410.785 806.623 408.027 803.912C399.49 795.5 390.865 787.185 382.409 778.671C367.762 764.013 353.597 748.931 338.623 734.659C321.275 718.27 301.554 704.59 280.125 694.083C273.44 690.726 266.516 687.848 259.73 684.671C258.822 684.247 257.61 683.534 257.378 682.723C255.712 676.697 254.171 670.524 252.335 663.378Z" fill="#DEE8DB"/>
<path d="M369.434 176.91C370.388 167.83 371.098 159.454 372.199 151.127C374.117 136.561 376.293 122.073 378.397 107.497C378.567 106.558 378.789 105.628 379.064 104.714C380.474 99.4373 384.443 96.7971 389.388 97.8305C394.013 98.8064 396.661 103.249 395.812 108.543C394.742 115.256 393.455 121.941 392.689 128.706C390.457 147.34 388.442 166.003 386.304 184.645C386.196 186.675 385.915 188.692 385.461 190.674C384.019 195.546 379.815 197.784 374.946 196.499C364.151 193.624 353.437 190.413 342.548 187.957C324.64 183.864 306.641 180.182 288.667 176.431C283.231 175.285 277.721 174.478 272.003 173.481C273.408 167.888 274.718 162.67 276.207 156.759C307.486 161.33 338.27 168.433 369.434 176.91Z" fill="#DEE8DB"/>
<path d="M251.583 244.481C263.953 246.456 276.103 247.895 288.015 250.513C310.342 255.409 332.802 260.04 354.655 266.587C377.73 273.491 400.181 282.496 422.887 290.626C425.99 291.688 429.03 292.926 431.993 294.332C437.161 296.881 438.98 301.392 436.913 306.084C434.934 310.59 430.151 312.246 424.806 310.173C409.813 304.349 394.962 298.142 379.822 292.736C350.439 282.262 320.264 274.16 289.586 268.506C276.884 266.155 264.135 264.118 251.355 262.165C248.138 261.678 247.597 260.289 248.355 257.495C249.459 253.398 250.391 249.289 251.583 244.481Z" fill="#DEE8DB"/>
<path d="M330.564 120.748C333.589 104.164 336.551 87.9151 339.638 70.9527L356.066 76.1126C354.633 84.2024 353.203 91.9087 351.901 99.6454C350.167 109.956 348.461 120.285 346.882 130.627C345.679 138.567 341.981 141.089 334.209 139.555C317.547 136.277 300.854 133.124 284.129 130.096C281.116 129.554 279.928 128.658 280.351 125.382C280.901 121.219 280.788 117.009 280.99 111.904L330.564 120.748Z" fill="#DEE8DB"/>
<path d="M226.663 466.703C236.445 468.59 245.727 470.012 254.852 472.092C266.538 474.756 278.098 477.923 289.723 480.845C295.794 482.375 298.946 486.892 297.598 492.166C296.305 497.223 291.055 499.152 284.941 497.666C267.097 493.308 249.203 489.162 231.26 485.227C228.102 484.534 226.873 483.492 226.982 480.283C227.093 476.079 226.803 471.874 226.663 466.703Z" fill="#DEE8DB"/>
<path d="M229.745 376.202C243.948 378.744 257.309 381.087 270.693 383.552C275.584 384.496 280.509 385.749 285.432 386.792C290.575 387.881 293.829 392.008 293.13 396.64C292.966 397.833 292.554 398.978 291.921 400.002C291.288 401.026 290.448 401.907 289.455 402.588C288.462 403.268 287.338 403.734 286.154 403.954C284.971 404.175 283.754 404.145 282.582 403.868C264.729 400.38 246.903 396.728 228.505 393.037C228.838 388.121 229.257 382.642 229.745 376.202Z" fill="#DEE8DB"/>
<path d="M276.9 66.2691C281.821 66.9182 286.307 67.2831 290.679 68.1649C293.783 68.7937 294.818 67.536 295.347 64.8411C296.216 60.4555 297.256 56.1068 298.385 50.9967C303.604 53.8091 308.34 56.346 312.967 59.0346C313.505 59.3483 313.774 60.7411 313.613 61.5285C312.383 67.6586 311.17 73.7944 309.665 79.8659C308.23 85.6574 304.58 87.8394 298.71 86.8989C293.21 86.0177 287.715 85.1029 282.191 84.3348C280.123 84.0469 279.197 83.2226 278.971 81.0333C278.478 76.3164 277.679 71.6253 276.9 66.2691Z" fill="#DEE8DB"/>
<path d="M258.874 216.72C260.471 211.058 261.938 205.864 263.558 200.115C272.135 201.554 280.684 202.904 289.189 204.396C291.739 204.781 294.253 205.374 296.707 206.167C298.687 206.754 300.359 208.093 301.366 209.897C302.372 211.7 302.633 213.826 302.093 215.82C301.063 220.26 297.249 223.307 292.812 222.602C281.71 220.81 270.649 218.745 258.874 216.72Z" fill="#DEE8DB"/>
</g>
<defs>
<clipPath id="clip0_10_704">
<rect width="957.166" height="865.794" fill="white" transform="translate(301.52) rotate(20.3808)"/>
</clipPath>
</defs>
</svg>

